<svg version="1.1" xmlns:xlink="http://www.w3.org/1999/xlink" xmlns="http://www.w3.org/2000/svg" viewBox="0 156.2300319488818 960 140.89456869009584" id="visual" style="max-height: 500px" width="960" height="140.89456869009584"><path fill="#f6f6f6" d="M0 177L22.8 176.8C45.7 176.7 91.3 176.3 137 181C182.7 185.7 228.3 195.3 274 197C319.7 198.7 365.3 192.3 411.2 190.2C457 188 503 190 548.8 189.7C594.7 189.3 640.3 186.7 686 185.2C731.7 183.7 777.3 183.3 823 188.3C868.7 193.3 914.3 203.7 937.2 208.8L960 214L960 301L937.2 301C914.3 301 868.7 301 823 301C777.3 301 731.7 301 686 301C640.3 301 594.7 301 548.8 301C503 301 457 301 411.2 301C365.3 301 319.7 301 274 301C228.3 301 182.7 301 137 301C91.3 301 45.7 301 22.8 301L0 301Z"/><path fill="#f0f0f0" d="M0 201L22.8 204.3C45.7 207.7 91.3 214.3 137 215.8C182.7 217.3 228.3 213.7 274 216C319.7 218.3 365.3 226.7 411.2 227.3C457 228 503 221 548.8 215.7C594.7 210.3 640.3 206.7 686 210.8C731.7 215 777.3 227 823 230.5C868.7 234 914.3 229 937.2 226.5L960 224L960 301L937.2 301C914.3 301 868.7 301 823 301C777.3 301 731.7 301 686 301C640.3 301 594.7 301 548.8 301C503 301 457 301 411.2 301C365.3 301 319.7 301 274 301C228.3 301 182.7 301 137 301C91.3 301 45.7 301 22.8 301L0 301Z"/><path fill="#ebebeb" d="M0 232L22.8 230.8C45.7 229.7 91.3 227.3 137 230.2C182.7 233 228.3 241 274 240.2C319.7 239.3 365.3 229.7 411.2 229.3C457 229 503 238 548.8 241.3C594.7 244.7 640.3 242.3 686 243C731.7 243.7 777.3 247.3 823 244.2C868.7 241 914.3 231 937.2 226L960 221L960 301L937.2 301C914.3 301 868.7 301 823 301C777.3 301 731.7 301 686 301C640.3 301 594.7 301 548.8 301C503 301 457 301 411.2 301C365.3 301 319.7 301 274 301C228.3 301 182.7 301 137 301C91.3 301 45.7 301 22.8 301L0 301Z"/><path fill="#e6e6e6" d="M0 254L22.8 252.5C45.7 251 91.3 248 137 246.5C182.7 245 228.3 245 274 248.3C319.7 251.7 365.3 258.3 411.2 259.5C457 260.7 503 256.3 548.8 255.7C594.7 255 640.3 258 686 256.7C731.7 255.3 777.3 249.7 823 251.3C868.7 253 914.3 262 937.2 266.5L960 271L960 301L937.2 301C914.3 301 868.7 301 823 301C777.3 301 731.7 301 686 301C640.3 301 594.7 301 548.8 301C503 301 457 301 411.2 301C365.3 301 319.7 301 274 301C228.3 301 182.7 301 137 301C91.3 301 45.7 301 22.8 301L0 301Z"/><path fill="#e1e1e1" d="M0 271L22.8 270.7C45.7 270.3 91.3 269.7 137 270.3C182.7 271 228.3 273 274 274.7C319.7 276.3 365.3 277.7 411.2 279.2C457 280.7 503 282.3 548.8 283C594.7 283.7 640.3 283.3 686 283C731.7 282.7 777.3 282.3 823 282C868.7 281.7 914.3 281.3 937.2 281.2L960 281L960 301L937.2 301C914.3 301 868.7 301 823 301C777.3 301 731.7 301 686 301C640.3 301 594.7 301 548.8 301C503 301 457 301 411.2 301C365.3 301 319.7 301 274 301C228.3 301 182.7 301 137 301C91.3 301 45.7 301 22.8 301L0 301Z"/></svg>