<svg id="visual" viewBox="0 0 960 300" width="960" height="300" xmlns="http://www.w3.org/2000/svg" xmlns:xlink="http://www.w3.org/1999/xlink" version="1.1"><path d="M0 195L22.8 198.8C45.7 202.7 91.3 210.3 137 212.5C182.7 214.7 228.3 211.3 274 205.2C319.7 199 365.3 190 411.2 190C457 190 503 199 548.8 206C594.7 213 640.3 218 686 220C731.7 222 777.3 221 823 213.2C868.7 205.3 914.3 190.7 937.2 183.3L960 176L960 301L937.2 301C914.3 301 868.7 301 823 301C777.3 301 731.7 301 686 301C640.3 301 594.7 301 548.8 301C503 301 457 301 411.2 301C365.3 301 319.7 301 274 301C228.3 301 182.7 301 137 301C91.3 301 45.7 301 22.8 301L0 301Z" fill="#f6f6f6"></path><path d="M0 225L22.8 226.5C45.7 228 91.3 231 137 230C182.7 229 228.3 224 274 219.7C319.7 215.3 365.3 211.7 411.2 211.3C457 211 503 214 548.8 218C594.7 222 640.3 227 686 225C731.7 223 777.3 214 823 209.2C868.7 204.3 914.3 203.7 937.2 203.3L960 203L960 301L937.2 301C914.3 301 868.7 301 823 301C777.3 301 731.7 301 686 301C640.3 301 594.7 301 548.8 301C503 301 457 301 411.2 301C365.3 301 319.7 301 274 301C228.3 301 182.7 301 137 301C91.3 301 45.7 301 22.8 301L0 301Z" fill="#f0f0f0"></path><path d="M0 222L22.8 225.7C45.7 229.3 91.3 236.7 137 241C182.7 245.3 228.3 246.7 274 247.8C319.7 249 365.3 250 411.2 250.7C457 251.3 503 251.7 548.8 248.2C594.7 244.7 640.3 237.3 686 233.8C731.7 230.3 777.3 230.7 823 231.3C868.7 232 914.3 233 937.2 233.5L960 234L960 301L937.2 301C914.3 301 868.7 301 823 301C777.3 301 731.7 301 686 301C640.3 301 594.7 301 548.8 301C503 301 457 301 411.2 301C365.3 301 319.7 301 274 301C228.3 301 182.7 301 137 301C91.3 301 45.7 301 22.8 301L0 301Z" fill="#ebebeb"></path><path d="M0 271L22.8 267.7C45.7 264.3 91.3 257.7 137 254C182.7 250.3 228.3 249.7 274 249.5C319.7 249.3 365.3 249.7 411.2 251.8C457 254 503 258 548.8 257.3C594.7 256.7 640.3 251.3 686 251.3C731.7 251.3 777.3 256.7 823 256.7C868.7 256.7 914.3 251.3 937.2 248.7L960 246L960 301L937.2 301C914.3 301 868.7 301 823 301C777.3 301 731.7 301 686 301C640.3 301 594.7 301 548.8 301C503 301 457 301 411.2 301C365.3 301 319.7 301 274 301C228.3 301 182.7 301 137 301C91.3 301 45.7 301 22.8 301L0 301Z" fill="#e6e6e6"></path><path d="M0 284L22.8 281.5C45.7 279 91.3 274 137 273C182.7 272 228.3 275 274 274.7C319.7 274.3 365.3 270.7 411.2 269.8C457 269 503 271 548.8 272.7C594.7 274.3 640.3 275.7 686 277.2C731.7 278.7 777.3 280.3 823 281.2C868.7 282 914.3 282 937.2 282L960 282L960 301L937.2 301C914.3 301 868.7 301 823 301C777.3 301 731.7 301 686 301C640.3 301 594.7 301 548.8 301C503 301 457 301 411.2 301C365.3 301 319.7 301 274 301C228.3 301 182.7 301 137 301C91.3 301 45.7 301 22.8 301L0 301Z" fill="#e1e1e1"></path></svg>