<svg id="visual" viewBox="0 0 960 300" width="960" height="300" xmlns="http://www.w3.org/2000/svg" xmlns:xlink="http://www.w3.org/1999/xlink" version="1.1"><path d="M0 182L22.8 186C45.7 190 91.3 198 137 200.8C182.7 203.7 228.3 201.3 274 200.8C319.7 200.3 365.3 201.7 411.2 199.2C457 196.7 503 190.3 548.8 186.5C594.7 182.7 640.3 181.3 686 181.3C731.7 181.3 777.3 182.7 823 186.5C868.7 190.3 914.3 196.7 937.2 199.8L960 203L960 301L937.2 301C914.3 301 868.7 301 823 301C777.3 301 731.7 301 686 301C640.3 301 594.7 301 548.8 301C503 301 457 301 411.2 301C365.3 301 319.7 301 274 301C228.3 301 182.7 301 137 301C91.3 301 45.7 301 22.8 301L0 301Z" fill="#f6f6f6"></path><path d="M0 229L22.8 230.2C45.7 231.3 91.3 233.7 137 231.2C182.7 228.7 228.3 221.3 274 218.2C319.7 215 365.3 216 411.2 217.5C457 219 503 221 548.8 220.5C594.7 220 640.3 217 686 217.7C731.7 218.3 777.3 222.7 823 226.7C868.7 230.7 914.3 234.3 937.2 236.2L960 238L960 301L937.2 301C914.3 301 868.7 301 823 301C777.3 301 731.7 301 686 301C640.3 301 594.7 301 548.8 301C503 301 457 301 411.2 301C365.3 301 319.7 301 274 301C228.3 301 182.7 301 137 301C91.3 301 45.7 301 22.8 301L0 301Z" fill="#f0f0f0"></path><path d="M0 245L22.8 246C45.7 247 91.3 249 137 245.8C182.7 242.7 228.3 234.3 274 231.7C319.7 229 365.3 232 411.2 236.5C457 241 503 247 548.8 244.8C594.7 242.7 640.3 232.3 686 227C731.7 221.7 777.3 221.3 823 225.8C868.7 230.3 914.3 239.7 937.2 244.3L960 249L960 301L937.2 301C914.3 301 868.7 301 823 301C777.3 301 731.7 301 686 301C640.3 301 594.7 301 548.8 301C503 301 457 301 411.2 301C365.3 301 319.7 301 274 301C228.3 301 182.7 301 137 301C91.3 301 45.7 301 22.8 301L0 301Z" fill="#ebebeb"></path><path d="M0 262L22.8 261.3C45.7 260.7 91.3 259.3 137 259.3C182.7 259.3 228.3 260.7 274 259C319.7 257.3 365.3 252.7 411.2 251.5C457 250.3 503 252.7 548.8 253C594.7 253.3 640.3 251.7 686 252.3C731.7 253 777.3 256 823 254.7C868.7 253.3 914.3 247.7 937.2 244.8L960 242L960 301L937.2 301C914.3 301 868.7 301 823 301C777.3 301 731.7 301 686 301C640.3 301 594.7 301 548.8 301C503 301 457 301 411.2 301C365.3 301 319.7 301 274 301C228.3 301 182.7 301 137 301C91.3 301 45.7 301 22.8 301L0 301Z" fill="#e6e6e6"></path><path d="M0 273L22.8 274.2C45.7 275.3 91.3 277.7 137 279.5C182.7 281.3 228.3 282.7 274 282.5C319.7 282.3 365.3 280.7 411.2 278.8C457 277 503 275 548.8 273.8C594.7 272.7 640.3 272.3 686 274.2C731.7 276 777.3 280 823 279.2C868.7 278.3 914.3 272.7 937.2 269.8L960 267L960 301L937.2 301C914.3 301 868.7 301 823 301C777.3 301 731.7 301 686 301C640.3 301 594.7 301 548.8 301C503 301 457 301 411.2 301C365.3 301 319.7 301 274 301C228.3 301 182.7 301 137 301C91.3 301 45.7 301 22.8 301L0 301Z" fill="#e1e1e1"></path></svg>