<svg id="visual" viewBox="0 0 960 300" width="960" height="300" xmlns="http://www.w3.org/2000/svg" xmlns:xlink="http://www.w3.org/1999/xlink" version="1.1"><path d="M0 200L22.8 202C45.7 204 91.3 208 137 211C182.7 214 228.3 216 274 212.7C319.7 209.3 365.3 200.7 411.2 194.5C457 188.3 503 184.7 548.8 188.2C594.7 191.7 640.3 202.3 686 207.8C731.7 213.3 777.3 213.7 823 207.7C868.7 201.7 914.3 189.3 937.2 183.2L960 177L960 301L937.2 301C914.3 301 868.7 301 823 301C777.3 301 731.7 301 686 301C640.3 301 594.7 301 548.8 301C503 301 457 301 411.2 301C365.3 301 319.7 301 274 301C228.3 301 182.7 301 137 301C91.3 301 45.7 301 22.8 301L0 301Z" fill="#f6f6f6"></path><path d="M0 222L22.8 219.8C45.7 217.7 91.3 213.3 137 209C182.7 204.7 228.3 200.3 274 198.5C319.7 196.7 365.3 197.3 411.2 202.3C457 207.3 503 216.7 548.8 218C594.7 219.3 640.3 212.7 686 207.7C731.7 202.7 777.3 199.3 823 201.5C868.7 203.7 914.3 211.3 937.2 215.2L960 219L960 301L937.2 301C914.3 301 868.7 301 823 301C777.3 301 731.7 301 686 301C640.3 301 594.7 301 548.8 301C503 301 457 301 411.2 301C365.3 301 319.7 301 274 301C228.3 301 182.7 301 137 301C91.3 301 45.7 301 22.8 301L0 301Z" fill="#f0f0f0"></path><path d="M0 243L22.8 245C45.7 247 91.3 251 137 252.5C182.7 254 228.3 253 274 252.5C319.7 252 365.3 252 411.2 252.3C457 252.7 503 253.3 548.8 248.7C594.7 244 640.3 234 686 233C731.7 232 777.3 240 823 239.2C868.7 238.3 914.3 228.7 937.2 223.8L960 219L960 301L937.2 301C914.3 301 868.7 301 823 301C777.3 301 731.7 301 686 301C640.3 301 594.7 301 548.8 301C503 301 457 301 411.2 301C365.3 301 319.7 301 274 301C228.3 301 182.7 301 137 301C91.3 301 45.7 301 22.8 301L0 301Z" fill="#ebebeb"></path><path d="M0 263L22.8 264.2C45.7 265.3 91.3 267.7 137 264.7C182.7 261.7 228.3 253.3 274 249.8C319.7 246.3 365.3 247.7 411.2 250.2C457 252.7 503 256.3 548.8 258.5C594.7 260.7 640.3 261.3 686 262C731.7 262.7 777.3 263.3 823 262.2C868.7 261 914.3 258 937.2 256.5L960 255L960 301L937.2 301C914.3 301 868.7 301 823 301C777.3 301 731.7 301 686 301C640.3 301 594.7 301 548.8 301C503 301 457 301 411.2 301C365.3 301 319.7 301 274 301C228.3 301 182.7 301 137 301C91.3 301 45.7 301 22.8 301L0 301Z" fill="#e6e6e6"></path><path d="M0 275L22.8 274.5C45.7 274 91.3 273 137 273.2C182.7 273.3 228.3 274.7 274 276C319.7 277.3 365.3 278.7 411.2 280C457 281.3 503 282.7 548.8 280.5C594.7 278.3 640.3 272.7 686 272.7C731.7 272.7 777.3 278.3 823 278.7C868.7 279 914.3 274 937.2 271.5L960 269L960 301L937.2 301C914.3 301 868.7 301 823 301C777.3 301 731.7 301 686 301C640.3 301 594.7 301 548.8 301C503 301 457 301 411.2 301C365.3 301 319.7 301 274 301C228.3 301 182.7 301 137 301C91.3 301 45.7 301 22.8 301L0 301Z" fill="#e1e1e1"></path></svg>