<svg id="visual" viewBox="0 0 960 300" width="960" height="300" xmlns="http://www.w3.org/2000/svg" xmlns:xlink="http://www.w3.org/1999/xlink" version="1.1"><rect x="0" y="0" width="960" height="300" fill="#ffffff"></rect><path d="M0 186L17.8 190C35.7 194 71.3 202 106.8 201.7C142.3 201.3 177.7 192.7 213.2 190.5C248.7 188.3 284.3 192.7 320 196.3C355.7 200 391.3 203 426.8 204C462.3 205 497.7 204 533.2 198.3C568.7 192.7 604.3 182.3 640 179.8C675.7 177.3 711.3 182.7 746.8 185.7C782.3 188.7 817.7 189.3 853.2 192.3C888.7 195.3 924.3 200.7 942.2 203.3L960 206L960 301L942.2 301C924.3 301 888.7 301 853.2 301C817.7 301 782.3 301 746.8 301C711.3 301 675.7 301 640 301C604.3 301 568.7 301 533.2 301C497.7 301 462.3 301 426.8 301C391.3 301 355.7 301 320 301C284.3 301 248.7 301 213.2 301C177.7 301 142.3 301 106.8 301C71.3 301 35.7 301 17.8 301L0 301Z" fill="#fbc2cd"></path><path d="M0 213L17.8 212.3C35.7 211.7 71.3 210.3 106.8 212.8C142.3 215.3 177.7 221.7 213.2 224.7C248.7 227.7 284.3 227.3 320 225.8C355.7 224.3 391.3 221.7 426.8 216.7C462.3 211.7 497.7 204.3 533.2 201.3C568.7 198.3 604.3 199.7 640 202.7C675.7 205.7 711.3 210.3 746.8 210C782.3 209.7 817.7 204.3 853.2 206.8C888.7 209.3 924.3 219.7 942.2 224.8L960 230L960 301L942.2 301C924.3 301 888.7 301 853.2 301C817.7 301 782.3 301 746.8 301C711.3 301 675.7 301 640 301C604.3 301 568.7 301 533.2 301C497.7 301 462.3 301 426.8 301C391.3 301 355.7 301 320 301C284.3 301 248.7 301 213.2 301C177.7 301 142.3 301 106.8 301C71.3 301 35.7 301 17.8 301L0 301Z" fill="#f09fb1"></path><path d="M0 226L17.8 225.2C35.7 224.3 71.3 222.7 106.8 226.7C142.3 230.7 177.7 240.3 213.2 239.7C248.7 239 284.3 228 320 225C355.7 222 391.3 227 426.8 231.2C462.3 235.3 497.7 238.7 533.2 239.7C568.7 240.7 604.3 239.3 640 239.2C675.7 239 711.3 240 746.8 240C782.3 240 817.7 239 853.2 237.2C888.7 235.3 924.3 232.7 942.2 231.3L960 230L960 301L942.2 301C924.3 301 888.7 301 853.2 301C817.7 301 782.3 301 746.8 301C711.3 301 675.7 301 640 301C604.3 301 568.7 301 533.2 301C497.7 301 462.3 301 426.8 301C391.3 301 355.7 301 320 301C284.3 301 248.7 301 213.2 301C177.7 301 142.3 301 106.8 301C71.3 301 35.7 301 17.8 301L0 301Z" fill="#e47b97"></path><path d="M0 267L17.8 266.5C35.7 266 71.3 265 106.8 263.2C142.3 261.3 177.7 258.7 213.2 259.2C248.7 259.7 284.3 263.3 320 260.7C355.7 258 391.3 249 426.8 246.2C462.3 243.3 497.7 246.7 533.2 248.2C568.7 249.7 604.3 249.3 640 249.2C675.7 249 711.3 249 746.8 249.2C782.3 249.3 817.7 249.7 853.2 252.2C888.7 254.7 924.3 259.3 942.2 261.7L960 264L960 301L942.2 301C924.3 301 888.7 301 853.2 301C817.7 301 782.3 301 746.8 301C711.3 301 675.7 301 640 301C604.3 301 568.7 301 533.2 301C497.7 301 462.3 301 426.8 301C391.3 301 355.7 301 320 301C284.3 301 248.7 301 213.2 301C177.7 301 142.3 301 106.8 301C71.3 301 35.7 301 17.8 301L0 301Z" fill="#d6557f"></path><path d="M0 276L17.8 276.8C35.7 277.7 71.3 279.3 106.8 279C142.3 278.7 177.7 276.3 213.2 275.8C248.7 275.3 284.3 276.7 320 278.5C355.7 280.3 391.3 282.7 426.8 281.2C462.3 279.7 497.7 274.3 533.2 272.8C568.7 271.3 604.3 273.7 640 275.5C675.7 277.3 711.3 278.7 746.8 280.2C782.3 281.7 817.7 283.3 853.2 283.7C888.7 284 924.3 283 942.2 282.5L960 282L960 301L942.2 301C924.3 301 888.7 301 853.2 301C817.7 301 782.3 301 746.8 301C711.3 301 675.7 301 640 301C604.3 301 568.7 301 533.2 301C497.7 301 462.3 301 426.8 301C391.3 301 355.7 301 320 301C284.3 301 248.7 301 213.2 301C177.7 301 142.3 301 106.8 301C71.3 301 35.7 301 17.8 301L0 301Z" fill="#c62368"></path></svg>