<svg id="visual" viewBox="0 0 960 300" width="960" height="300" xmlns="http://www.w3.org/2000/svg" xmlns:xlink="http://www.w3.org/1999/xlink" version="1.1"><path d="M0 84L22.8 88.5C45.7 93 91.3 102 137 104.7C182.7 107.3 228.3 103.7 274 101.7C319.7 99.7 365.3 99.3 411.2 96.5C457 93.7 503 88.3 548.8 86.3C594.7 84.3 640.3 85.7 686 84.2C731.7 82.7 777.3 78.3 823 77.5C868.7 76.7 914.3 79.3 937.2 80.7L960 82L960 0L937.2 0C914.3 0 868.7 0 823 0C777.3 0 731.7 0 686 0C640.3 0 594.7 0 548.8 0C503 0 457 0 411.2 0C365.3 0 319.7 0 274 0C228.3 0 182.7 0 137 0C91.3 0 45.7 0 22.8 0L0 0Z" fill="#f9f9f9"></path><path d="M0 90L22.8 90.2C45.7 90.3 91.3 90.7 137 90.7C182.7 90.7 228.3 90.3 274 91.7C319.7 93 365.3 96 411.2 91.5C457 87 503 75 548.8 71.5C594.7 68 640.3 73 686 74C731.7 75 777.3 72 823 70.2C868.7 68.3 914.3 67.7 937.2 67.3L960 67L960 0L937.2 0C914.3 0 868.7 0 823 0C777.3 0 731.7 0 686 0C640.3 0 594.7 0 548.8 0C503 0 457 0 411.2 0C365.3 0 319.7 0 274 0C228.3 0 182.7 0 137 0C91.3 0 45.7 0 22.8 0L0 0Z" fill="#f3f3f3"></path><path d="M0 70L22.8 69C45.7 68 91.3 66 137 64.2C182.7 62.3 228.3 60.7 274 57.5C319.7 54.3 365.3 49.7 411.2 47.8C457 46 503 47 548.8 47.7C594.7 48.3 640.3 48.7 686 48.7C731.7 48.7 777.3 48.3 823 52.3C868.7 56.3 914.3 64.7 937.2 68.8L960 73L960 0L937.2 0C914.3 0 868.7 0 823 0C777.3 0 731.7 0 686 0C640.3 0 594.7 0 548.8 0C503 0 457 0 411.2 0C365.3 0 319.7 0 274 0C228.3 0 182.7 0 137 0C91.3 0 45.7 0 22.8 0L0 0Z" fill="#ededed"></path><path d="M0 54L22.8 51.2C45.7 48.3 91.3 42.7 137 39.2C182.7 35.7 228.3 34.3 274 36.7C319.7 39 365.3 45 411.2 47.8C457 50.7 503 50.3 548.8 49.2C594.7 48 640.3 46 686 47C731.7 48 777.3 52 823 49.8C868.7 47.7 914.3 39.3 937.2 35.2L960 31L960 0L937.2 0C914.3 0 868.7 0 823 0C777.3 0 731.7 0 686 0C640.3 0 594.7 0 548.8 0C503 0 457 0 411.2 0C365.3 0 319.7 0 274 0C228.3 0 182.7 0 137 0C91.3 0 45.7 0 22.8 0L0 0Z" fill="#e7e7e7"></path><path d="M0 35L22.8 32.2C45.7 29.3 91.3 23.7 137 21.5C182.7 19.3 228.3 20.7 274 22.3C319.7 24 365.3 26 411.2 26C457 26 503 24 548.8 22.2C594.7 20.3 640.3 18.7 686 18.5C731.7 18.3 777.3 19.7 823 20.8C868.7 22 914.3 23 937.2 23.5L960 24L960 0L937.2 0C914.3 0 868.7 0 823 0C777.3 0 731.7 0 686 0C640.3 0 594.7 0 548.8 0C503 0 457 0 411.2 0C365.3 0 319.7 0 274 0C228.3 0 182.7 0 137 0C91.3 0 45.7 0 22.8 0L0 0Z" fill="#e1e1e1"></path></svg>