<svg id="visual" viewBox="0 0 960 300" width="960" height="300" xmlns="http://www.w3.org/2000/svg" xmlns:xlink="http://www.w3.org/1999/xlink" version="1.1"><path d="M0 102L22.8 98C45.7 94 91.3 86 137 89.3C182.7 92.7 228.3 107.3 274 113.5C319.7 119.7 365.3 117.3 411.2 112.5C457 107.7 503 100.3 548.8 95.5C594.7 90.7 640.3 88.3 686 89.7C731.7 91 777.3 96 823 101.5C868.7 107 914.3 113 937.2 116L960 119L960 0L937.2 0C914.3 0 868.7 0 823 0C777.3 0 731.7 0 686 0C640.3 0 594.7 0 548.8 0C503 0 457 0 411.2 0C365.3 0 319.7 0 274 0C228.3 0 182.7 0 137 0C91.3 0 45.7 0 22.8 0L0 0Z" fill="#f9f9f9"></path><path d="M0 89L22.8 85C45.7 81 91.3 73 137 67.8C182.7 62.7 228.3 60.3 274 60.8C319.7 61.3 365.3 64.7 411.2 71.5C457 78.3 503 88.7 548.8 91.2C594.7 93.7 640.3 88.3 686 88C731.7 87.7 777.3 92.3 823 93.7C868.7 95 914.3 93 937.2 92L960 91L960 0L937.2 0C914.3 0 868.7 0 823 0C777.3 0 731.7 0 686 0C640.3 0 594.7 0 548.8 0C503 0 457 0 411.2 0C365.3 0 319.7 0 274 0C228.3 0 182.7 0 137 0C91.3 0 45.7 0 22.8 0L0 0Z" fill="#f3f3f3"></path><path d="M0 63L22.8 60.3C45.7 57.7 91.3 52.3 137 52.5C182.7 52.7 228.3 58.3 274 60.7C319.7 63 365.3 62 411.2 63C457 64 503 67 548.8 64C594.7 61 640.3 52 686 52.5C731.7 53 777.3 63 823 64C868.7 65 914.3 57 937.2 53L960 49L960 0L937.2 0C914.3 0 868.7 0 823 0C777.3 0 731.7 0 686 0C640.3 0 594.7 0 548.8 0C503 0 457 0 411.2 0C365.3 0 319.7 0 274 0C228.3 0 182.7 0 137 0C91.3 0 45.7 0 22.8 0L0 0Z" fill="#ededed"></path><path d="M0 44L22.8 45.5C45.7 47 91.3 50 137 47.8C182.7 45.7 228.3 38.3 274 38.8C319.7 39.3 365.3 47.7 411.2 50C457 52.3 503 48.7 548.8 45.2C594.7 41.7 640.3 38.3 686 37.8C731.7 37.3 777.3 39.7 823 42.7C868.7 45.7 914.3 49.3 937.2 51.2L960 53L960 0L937.2 0C914.3 0 868.7 0 823 0C777.3 0 731.7 0 686 0C640.3 0 594.7 0 548.8 0C503 0 457 0 411.2 0C365.3 0 319.7 0 274 0C228.3 0 182.7 0 137 0C91.3 0 45.7 0 22.8 0L0 0Z" fill="#e7e7e7"></path><path d="M0 17L22.8 20.2C45.7 23.3 91.3 29.7 137 30.2C182.7 30.7 228.3 25.3 274 24C319.7 22.7 365.3 25.3 411.2 25.5C457 25.7 503 23.3 548.8 21.8C594.7 20.3 640.3 19.7 686 18.5C731.7 17.3 777.3 15.7 823 17.3C868.7 19 914.3 24 937.2 26.5L960 29L960 0L937.2 0C914.3 0 868.7 0 823 0C777.3 0 731.7 0 686 0C640.3 0 594.7 0 548.8 0C503 0 457 0 411.2 0C365.3 0 319.7 0 274 0C228.3 0 182.7 0 137 0C91.3 0 45.7 0 22.8 0L0 0Z" fill="#e1e1e1"></path></svg>