<svg id="visual" viewBox="0 0 960 300" width="960" height="300" xmlns="http://www.w3.org/2000/svg" xmlns:xlink="http://www.w3.org/1999/xlink" version="1.1"><path d="M0 107L22.8 109.2C45.7 111.3 91.3 115.7 137 116.8C182.7 118 228.3 116 274 108.7C319.7 101.3 365.3 88.7 411.2 82.3C457 76 503 76 548.8 81.7C594.7 87.3 640.3 98.7 686 100.8C731.7 103 777.3 96 823 92C868.7 88 914.3 87 937.2 86.5L960 86L960 0L937.2 0C914.3 0 868.7 0 823 0C777.3 0 731.7 0 686 0C640.3 0 594.7 0 548.8 0C503 0 457 0 411.2 0C365.3 0 319.7 0 274 0C228.3 0 182.7 0 137 0C91.3 0 45.7 0 22.8 0L0 0Z" fill="#f9f9f9"></path><path d="M0 82L22.8 80C45.7 78 91.3 74 137 70.5C182.7 67 228.3 64 274 68C319.7 72 365.3 83 411.2 86.2C457 89.3 503 84.7 548.8 81.7C594.7 78.7 640.3 77.3 686 80.3C731.7 83.3 777.3 90.7 823 89.7C868.7 88.7 914.3 79.3 937.2 74.7L960 70L960 0L937.2 0C914.3 0 868.7 0 823 0C777.3 0 731.7 0 686 0C640.3 0 594.7 0 548.8 0C503 0 457 0 411.2 0C365.3 0 319.7 0 274 0C228.3 0 182.7 0 137 0C91.3 0 45.7 0 22.8 0L0 0Z" fill="#f3f3f3"></path><path d="M0 55L22.8 55C45.7 55 91.3 55 137 53.2C182.7 51.3 228.3 47.7 274 49.3C319.7 51 365.3 58 411.2 63.3C457 68.7 503 72.3 548.8 71.5C594.7 70.7 640.3 65.3 686 61.2C731.7 57 777.3 54 823 51.2C868.7 48.3 914.3 45.7 937.2 44.3L960 43L960 0L937.2 0C914.3 0 868.7 0 823 0C777.3 0 731.7 0 686 0C640.3 0 594.7 0 548.8 0C503 0 457 0 411.2 0C365.3 0 319.7 0 274 0C228.3 0 182.7 0 137 0C91.3 0 45.7 0 22.8 0L0 0Z" fill="#ededed"></path><path d="M0 43L22.8 43.2C45.7 43.3 91.3 43.7 137 44.7C182.7 45.7 228.3 47.3 274 44.7C319.7 42 365.3 35 411.2 31.8C457 28.7 503 29.3 548.8 31.7C594.7 34 640.3 38 686 42.2C731.7 46.3 777.3 50.7 823 52.3C868.7 54 914.3 53 937.2 52.5L960 52L960 0L937.2 0C914.3 0 868.7 0 823 0C777.3 0 731.7 0 686 0C640.3 0 594.7 0 548.8 0C503 0 457 0 411.2 0C365.3 0 319.7 0 274 0C228.3 0 182.7 0 137 0C91.3 0 45.7 0 22.8 0L0 0Z" fill="#e7e7e7"></path><path d="M0 14L22.8 13.8C45.7 13.7 91.3 13.3 137 14.5C182.7 15.7 228.3 18.3 274 18.3C319.7 18.3 365.3 15.7 411.2 17C457 18.3 503 23.7 548.8 25.2C594.7 26.7 640.3 24.3 686 22.8C731.7 21.3 777.3 20.7 823 22.3C868.7 24 914.3 28 937.2 30L960 32L960 0L937.2 0C914.3 0 868.7 0 823 0C777.3 0 731.7 0 686 0C640.3 0 594.7 0 548.8 0C503 0 457 0 411.2 0C365.3 0 319.7 0 274 0C228.3 0 182.7 0 137 0C91.3 0 45.7 0 22.8 0L0 0Z" fill="#e1e1e1"></path></svg>