<svg id="visual" viewBox="0 0 960 300" width="960" height="300" xmlns="http://www.w3.org/2000/svg" xmlns:xlink="http://www.w3.org/1999/xlink" version="1.1"><rect x="0" y="0" width="960" height="300" fill="#ffffff"></rect><path d="M0 189L22.8 194.7C45.7 200.3 91.3 211.7 137 213C182.7 214.3 228.3 205.7 274 200.8C319.7 196 365.3 195 411.2 200.3C457 205.7 503 217.3 548.8 219.7C594.7 222 640.3 215 686 211.3C731.7 207.7 777.3 207.3 823 209.3C868.7 211.3 914.3 215.7 937.2 217.8L960 220L960 301L937.2 301C914.3 301 868.7 301 823 301C777.3 301 731.7 301 686 301C640.3 301 594.7 301 548.8 301C503 301 457 301 411.2 301C365.3 301 319.7 301 274 301C228.3 301 182.7 301 137 301C91.3 301 45.7 301 22.8 301L0 301Z" fill="#f4f4f4"></path><path d="M0 212L22.8 215C45.7 218 91.3 224 137 230C182.7 236 228.3 242 274 240.2C319.7 238.3 365.3 228.7 411.2 226.3C457 224 503 229 548.8 228C594.7 227 640.3 220 686 217C731.7 214 777.3 215 823 216.3C868.7 217.7 914.3 219.3 937.2 220.2L960 221L960 301L937.2 301C914.3 301 868.7 301 823 301C777.3 301 731.7 301 686 301C640.3 301 594.7 301 548.8 301C503 301 457 301 411.2 301C365.3 301 319.7 301 274 301C228.3 301 182.7 301 137 301C91.3 301 45.7 301 22.8 301L0 301Z" fill="#eaeaea"></path><path d="M0 261L22.8 258.7C45.7 256.3 91.3 251.7 137 252.5C182.7 253.3 228.3 259.7 274 261.5C319.7 263.3 365.3 260.7 411.2 259.3C457 258 503 258 548.8 257.5C594.7 257 640.3 256 686 259.3C731.7 262.7 777.3 270.3 823 268.7C868.7 267 914.3 256 937.2 250.5L960 245L960 301L937.2 301C914.3 301 868.7 301 823 301C777.3 301 731.7 301 686 301C640.3 301 594.7 301 548.8 301C503 301 457 301 411.2 301C365.3 301 319.7 301 274 301C228.3 301 182.7 301 137 301C91.3 301 45.7 301 22.8 301L0 301Z" fill="#e1e1e1"></path></svg>