<svg id="visual" viewBox="0 0 960 300" width="960" height="300" xmlns="http://www.w3.org/2000/svg" xmlns:xlink="http://www.w3.org/1999/xlink" version="1.1"><rect x="0" y="0" width="960" height="300" fill="#ffffff"></rect><path d="M0 229L22.8 228C45.7 227 91.3 225 137 221C182.7 217 228.3 211 274 204.8C319.7 198.7 365.3 192.3 411.2 195.7C457 199 503 212 548.8 219.8C594.7 227.7 640.3 230.3 686 223C731.7 215.7 777.3 198.3 823 191.7C868.7 185 914.3 189 937.2 191L960 193L960 301L937.2 301C914.3 301 868.7 301 823 301C777.3 301 731.7 301 686 301C640.3 301 594.7 301 548.8 301C503 301 457 301 411.2 301C365.3 301 319.7 301 274 301C228.3 301 182.7 301 137 301C91.3 301 45.7 301 22.8 301L0 301Z" fill="#f4f4f4"></path><path d="M0 228L22.8 226.3C45.7 224.7 91.3 221.3 137 226C182.7 230.7 228.3 243.3 274 245.3C319.7 247.3 365.3 238.7 411.2 233.8C457 229 503 228 548.8 228.7C594.7 229.3 640.3 231.7 686 231C731.7 230.3 777.3 226.7 823 225.2C868.7 223.7 914.3 224.3 937.2 224.7L960 225L960 301L937.2 301C914.3 301 868.7 301 823 301C777.3 301 731.7 301 686 301C640.3 301 594.7 301 548.8 301C503 301 457 301 411.2 301C365.3 301 319.7 301 274 301C228.3 301 182.7 301 137 301C91.3 301 45.7 301 22.8 301L0 301Z" fill="#eaeaea"></path><path d="M0 269L22.8 267.7C45.7 266.3 91.3 263.7 137 262.7C182.7 261.7 228.3 262.3 274 262.2C319.7 262 365.3 261 411.2 263.7C457 266.3 503 272.7 548.8 271.3C594.7 270 640.3 261 686 260.8C731.7 260.7 777.3 269.3 823 269.7C868.7 270 914.3 262 937.2 258L960 254L960 301L937.2 301C914.3 301 868.7 301 823 301C777.3 301 731.7 301 686 301C640.3 301 594.7 301 548.8 301C503 301 457 301 411.2 301C365.3 301 319.7 301 274 301C228.3 301 182.7 301 137 301C91.3 301 45.7 301 22.8 301L0 301Z" fill="#e1e1e1"></path></svg>