<svg id="visual" viewBox="0 0 960 300" width="960" height="300" xmlns="http://www.w3.org/2000/svg" xmlns:xlink="http://www.w3.org/1999/xlink" version="1.1"><rect x="0" y="0" width="960" height="300" fill="#ffffff"></rect><path d="M0 211L22.8 210.2C45.7 209.3 91.3 207.7 137 202.5C182.7 197.3 228.3 188.7 274 189.5C319.7 190.3 365.3 200.7 411.2 201.2C457 201.7 503 192.3 548.8 186.8C594.7 181.3 640.3 179.7 686 179.7C731.7 179.7 777.3 181.3 823 186.2C868.7 191 914.3 199 937.2 203L960 207L960 301L937.2 301C914.3 301 868.7 301 823 301C777.3 301 731.7 301 686 301C640.3 301 594.7 301 548.8 301C503 301 457 301 411.2 301C365.3 301 319.7 301 274 301C228.3 301 182.7 301 137 301C91.3 301 45.7 301 22.8 301L0 301Z" fill="#f4f4f4"></path><path d="M0 229L22.8 230.5C45.7 232 91.3 235 137 235.2C182.7 235.3 228.3 232.7 274 229.2C319.7 225.7 365.3 221.3 411.2 224.3C457 227.3 503 237.7 548.8 242.3C594.7 247 640.3 246 686 240C731.7 234 777.3 223 823 217.7C868.7 212.3 914.3 212.7 937.2 212.8L960 213L960 301L937.2 301C914.3 301 868.7 301 823 301C777.3 301 731.7 301 686 301C640.3 301 594.7 301 548.8 301C503 301 457 301 411.2 301C365.3 301 319.7 301 274 301C228.3 301 182.7 301 137 301C91.3 301 45.7 301 22.8 301L0 301Z" fill="#eaeaea"></path><path d="M0 274L22.8 271C45.7 268 91.3 262 137 259.8C182.7 257.7 228.3 259.3 274 263C319.7 266.7 365.3 272.3 411.2 270.5C457 268.7 503 259.3 548.8 257.5C594.7 255.7 640.3 261.3 686 260.8C731.7 260.3 777.3 253.7 823 250.3C868.7 247 914.3 247 937.2 247L960 247L960 301L937.2 301C914.3 301 868.7 301 823 301C777.3 301 731.7 301 686 301C640.3 301 594.7 301 548.8 301C503 301 457 301 411.2 301C365.3 301 319.7 301 274 301C228.3 301 182.7 301 137 301C91.3 301 45.7 301 22.8 301L0 301Z" fill="#e1e1e1"></path></svg>