<svg id="visual" viewBox="0 0 960 300" width="960" height="300" xmlns="http://www.w3.org/2000/svg" xmlns:xlink="http://www.w3.org/1999/xlink" version="1.1"><rect x="0" y="0" width="960" height="300" fill="#ffffff"></rect><path d="M0 208L22.8 212.2C45.7 216.3 91.3 224.7 137 219.8C182.7 215 228.3 197 274 193.8C319.7 190.7 365.3 202.3 411.2 206.5C457 210.7 503 207.3 548.8 210.5C594.7 213.7 640.3 223.3 686 223C731.7 222.7 777.3 212.3 823 208.5C868.7 204.7 914.3 207.3 937.2 208.7L960 210L960 301L937.2 301C914.3 301 868.7 301 823 301C777.3 301 731.7 301 686 301C640.3 301 594.7 301 548.8 301C503 301 457 301 411.2 301C365.3 301 319.7 301 274 301C228.3 301 182.7 301 137 301C91.3 301 45.7 301 22.8 301L0 301Z" fill="#f4f4f4"></path><path d="M0 215L22.8 215.8C45.7 216.7 91.3 218.3 137 223.2C182.7 228 228.3 236 274 242C319.7 248 365.3 252 411.2 251.7C457 251.3 503 246.7 548.8 243.3C594.7 240 640.3 238 686 237.3C731.7 236.7 777.3 237.3 823 240.2C868.7 243 914.3 248 937.2 250.5L960 253L960 301L937.2 301C914.3 301 868.7 301 823 301C777.3 301 731.7 301 686 301C640.3 301 594.7 301 548.8 301C503 301 457 301 411.2 301C365.3 301 319.7 301 274 301C228.3 301 182.7 301 137 301C91.3 301 45.7 301 22.8 301L0 301Z" fill="#eaeaea"></path><path d="M0 270L22.8 267.5C45.7 265 91.3 260 137 257.7C182.7 255.3 228.3 255.7 274 256.3C319.7 257 365.3 258 411.2 258.3C457 258.7 503 258.3 548.8 256.3C594.7 254.3 640.3 250.7 686 253.5C731.7 256.3 777.3 265.7 823 269.8C868.7 274 914.3 273 937.2 272.5L960 272L960 301L937.2 301C914.3 301 868.7 301 823 301C777.3 301 731.7 301 686 301C640.3 301 594.7 301 548.8 301C503 301 457 301 411.2 301C365.3 301 319.7 301 274 301C228.3 301 182.7 301 137 301C91.3 301 45.7 301 22.8 301L0 301Z" fill="#e1e1e1"></path></svg>